<?xml version="1.0" standalone="no"?>
<!DOCTYPE svg PUBLIC "-//W3C//DTD SVG 20010904//EN"
 "http://www.w3.org/TR/2001/REC-SVG-20010904/DTD/svg10.dtd">
<svg version="1.0" xmlns="http://www.w3.org/2000/svg"
 width="32.000000pt" height="32.000000pt" viewBox="0 0 32.000000 32.000000"
 preserveAspectRatio="xMidYMid meet">

<g transform="translate(0.000000,32.000000) scale(0.100000,-0.100000)"
fill="#000000" stroke="none">
<path d="M77 301 c-2 -10 0 -26 5 -35 7 -12 5 -16 -7 -16 -8 0 -15 6 -15 13 0
6 -5 4 -11 -6 -8 -14 -8 -22 0 -30 8 -8 11 -8 11 0 0 6 11 13 25 15 32 7 32 0
0 -12 -27 -10 -25 -42 4 -38 10 2 16 -4 16 -17 0 -11 8 -21 18 -23 20 -4 49
16 42 28 -6 9 25 23 33 15 3 -3 0 -5 -7 -5 -8 0 -9 -5 -1 -19 7 -13 7 -22 0
-26 -5 -3 -10 -1 -10 5 0 7 -9 5 -22 -4 -31 -22 -51 -20 -68 5 -8 12 -20 27
-27 34 -7 7 -9 15 -6 19 4 3 -2 6 -11 6 -13 0 -17 -6 -13 -20 3 -13 1 -18 -6
-13 -6 4 -8 0 -4 -10 3 -9 1 -18 -6 -20 -8 -3 -6 -12 8 -27 11 -13 15 -20 8
-16 -14 7 -38 -64 -25 -75 4 -4 55 -11 114 -15 94 -6 108 -5 108 9 0 8 -6 18
-12 21 -7 3 -1 3 15 -1 15 -3 41 0 57 7 23 10 30 19 30 40 0 16 -6 31 -13 33
-9 4 -9 6 1 6 14 1 -39 51 -53 51 -5 0 -23 11 -41 25 -18 14 -42 25 -53 25
-25 0 -28 18 -4 27 14 5 13 8 -5 14 -13 5 -22 17 -22 29 0 27 -46 28 -53 1z
m77 -90 c4 -5 -3 -7 -14 -4 -23 6 -26 13 -6 13 8 0 17 -4 20 -9z m-4 -30 c0
-4 -7 -8 -15 -8 -8 0 -15 6 -15 13 0 8 6 11 15 8 8 -4 15 -9 15 -13z m3 -117
c39 -7 48 -18 20 -27 -10 -2 -27 -8 -38 -12 -19 -7 -19 -7 -1 7 17 14 18 15 2
21 -10 4 -22 5 -26 2 -5 -3 -11 -1 -15 5 -7 12 5 12 58 4z"/>
</g>
</svg>
